<?xml version="1.0" encoding="UTF-8" standalone="no"?>
<!-- Uploaded to: SVG Repo, www.svgrepo.com, Generator: SVG Repo Mixer Tools -->

<svg
   height="40"
   width="40"
   version="1.1"
   id="Capa_1"
   viewBox="0 0 14.6667 14.6667"
   xml:space="preserve"
   sodipodi:docname="marker-blue.svg"
   inkscape:version="1.2.2 (b0a8486541, 2022-12-01)"
   xmlns:inkscape="http://www.inkscape.org/namespaces/inkscape"
   xmlns:sodipodi="http://sodipodi.sourceforge.net/DTD/sodipodi-0.dtd"
   xmlns="http://www.w3.org/2000/svg"
   xmlns:svg="http://www.w3.org/2000/svg"><defs
   id="defs13"><filter
     style="color-interpolation-filters:sRGB;"
     inkscape:label="Drop Shadow"
     id="filter300"
     x="-0.3365539"
     y="-0.2150584"
     width="1.7388216"
     height="1.4710258"><feFlood
       flood-opacity="0.498039"
       flood-color="rgb(0,0,0)"
       result="flood"
       id="feFlood290" /><feComposite
       in="flood"
       in2="SourceGraphic"
       operator="in"
       result="composite1"
       id="feComposite292" /><feGaussianBlur
       in="composite1"
       stdDeviation="13.1425"
       result="blur"
       id="feGaussianBlur294" /><feOffset
       dx="6.15873"
       dy="6"
       result="offset"
       id="feOffset296" /><feComposite
       in="SourceGraphic"
       in2="offset"
       operator="over"
       result="fbSourceGraphic"
       id="feComposite298" /><feColorMatrix
       result="fbSourceGraphicAlpha"
       in="fbSourceGraphic"
       values="0 0 0 -1 0 0 0 0 -1 0 0 0 0 -1 0 0 0 0 1 0"
       id="feColorMatrix302" /><feFlood
       id="feFlood304"
       flood-opacity="0.498039"
       flood-color="rgb(0,0,0)"
       result="flood"
       in="fbSourceGraphic" /><feComposite
       in2="fbSourceGraphic"
       id="feComposite306"
       in="flood"
       operator="in"
       result="composite1" /><feGaussianBlur
       id="feGaussianBlur308"
       in="composite1"
       stdDeviation="13.1425"
       result="blur" /><feOffset
       id="feOffset310"
       dx="6.15873"
       dy="6"
       result="offset" /><feComposite
       in2="offset"
       id="feComposite312"
       in="fbSourceGraphic"
       operator="over"
       result="composite2" /></filter></defs><sodipodi:namedview
   id="namedview11"
   pagecolor="#ffffff"
   bordercolor="#000000"
   borderopacity="0.25"
   inkscape:showpageshadow="2"
   inkscape:pageopacity="0.0"
   inkscape:pagecheckerboard="0"
   inkscape:deskcolor="#d1d1d1"
   showgrid="false"
   inkscape:zoom="4.72"
   inkscape:cx="133.26271"
   inkscape:cy="16.631356"
   inkscape:window-width="2560"
   inkscape:window-height="1414"
   inkscape:window-x="1280"
   inkscape:window-y="1080"
   inkscape:window-maximized="1"
   inkscape:current-layer="Capa_1" />
<g
   id="g8"
   transform="matrix(0.0475438,0,0,0.0475438,0.09776014,0.39859415)"
   style="fill:#0000ff">
	<g
   id="g6"
   style="fill:#0000ff">
		<path
   style="fill:#0000ff;filter:url(#filter300)"
   d="M 146.667,0 C 94.903,0 52.946,41.957 52.946,93.721 c 0,22.322 7.849,42.789 20.891,58.878 4.204,5.178 11.237,13.331 14.903,18.906 21.109,32.069 48.19,78.643 56.082,116.864 1.354,6.527 2.986,6.641 4.743,0.212 5.629,-20.609 20.228,-65.639 50.377,-112.757 3.595,-5.619 10.884,-13.483 15.409,-18.379 6.554,-7.098 12.009,-15.224 16.154,-24.084 5.651,-12.086 8.882,-25.466 8.882,-39.629 C 240.387,41.962 198.43,0 146.667,0 Z m 0,144.358 c -28.892,0 -52.313,-23.421 -52.313,-52.313 0,-28.887 23.421,-52.307 52.313,-52.307 28.892,0 52.313,23.421 52.313,52.307 0,28.893 -23.421,52.313 -52.313,52.313 z"
   id="path2"
   inkscape:label="path2" />
		<circle
   style="fill:#0000ff"
   cx="146.66701"
   cy="90.195999"
   r="21.756001"
   id="circle4" />
	</g>
</g>
</svg>
